<svg width="100" height="100" viewBox="0 0 100 100" fill="none" xmlns="http://www.w3.org/2000/svg">
<path d="M29.4584 45.8333L29.1667 50L29.4584 54.1667H72.2917L68.75 62.5H31.9584C36.6667 72.3333 46.7084 79.1667 58.3334 79.1667C67.625 79.1667 75.9167 74.8333 81.25 68.0417V79.6667C75 84.5833 66.9584 87.5 58.3334 87.5C42 87.5 28.125 77.0833 22.9167 62.5H8.33337L12.5 54.1667H21.0417L20.8334 50L21.0417 45.8333H8.33337L12.5 37.5H22.9167C28.125 22.9167 42 12.5 58.3334 12.5C68.75 12.5 78.3334 16.8333 85.125 23.7917L81.5417 32.2917C76.2084 25.3333 67.7917 20.8333 58.3334 20.8333C46.7084 20.8333 36.6667 27.6667 31.9584 37.5H79.3334L75.7917 45.8333H29.4584Z" fill="#333333"/>
</svg>
