<svg width="64" height="65" viewBox="0 0 64 65" fill="none" xmlns="http://www.w3.org/2000/svg">
<path d="M52.24 8.22046H58.6667V13.5538H54.4267L43.12 24.8605C42.1333 23.3671 40.8533 22.0871 39.36 21.1005L52.24 8.22046ZM32 21.5538C34.829 21.5538 37.5421 22.6776 39.5425 24.678C41.5429 26.6784 42.6667 29.3915 42.6667 32.2205C42.6667 37.0738 39.3867 41.3405 34.6667 42.5405V42.8871C34.6667 46.4233 33.2619 49.8147 30.7614 52.3152C28.2609 54.8157 24.8696 56.2205 21.3333 56.2205C17.7971 56.2205 14.4057 54.8157 11.9052 52.3152C9.40476 49.8147 8 46.4233 8 42.8871C8 39.3509 9.40476 35.9595 11.9052 33.459C14.4057 30.9586 17.7971 29.5538 21.3333 29.5538H21.68C22.88 24.8605 27.12 21.5538 32 21.5538ZM32 28.2205C30.9391 28.2205 29.9217 28.6419 29.1716 29.392C28.4214 30.1422 28 31.1596 28 32.2205C28 33.2813 28.4214 34.2987 29.1716 35.0489C29.9217 35.799 30.9391 36.2205 32 36.2205C33.0609 36.2205 34.0783 35.799 34.8284 35.0489C35.5786 34.2987 36 33.2813 36 32.2205C36 31.1596 35.5786 30.1422 34.8284 29.392C34.0783 28.6419 33.0609 28.2205 32 28.2205ZM18.5067 38.1938L16.6133 40.0605L24.16 47.6071L26.0533 45.7138L18.5067 38.1938Z" fill="#4F4F4F"/>
</svg>
