<svg width="79" height="80" viewBox="0 0 79 80" fill="none" xmlns="http://www.w3.org/2000/svg">
<ellipse cx="40.8946" cy="39.2157" rx="38.0284" ry="39.2157" fill="#846E52"/>
<path d="M31.3771 23.7634C29.286 19.296 30.2246 15.0899 34.193 11.1453C36.902 8.9353 40.8467 7.67586 46.027 7.36694C55.1045 6.89168 59.3462 8.57886 58.7521 12.4285C58.0155 15.1137 56.3045 15.1256 53.6193 12.4641C47.1795 11.7037 42.4745 12.1433 39.5041 13.783C33.9198 16.4444 33.6584 21.0663 38.7199 27.6487C41.3101 31.0468 40.6447 33.9934 36.7238 36.4885C27.5038 42.358 24.8423 48.7502 28.7394 55.6653C32.2326 61.8674 37.9476 63.8635 45.8845 61.6536C50.9697 60.2278 53.5837 60.5129 53.7262 62.509C53.9164 65.5507 52.5381 67.3567 49.5915 67.927C44.2923 68.925 39.1714 68.5924 34.2287 66.929C27.6701 64.7428 23.6898 60.905 22.2878 55.4158C20.0303 46.5284 23.6898 39.2569 33.2663 33.6013C35.7614 32.128 35.6545 29.7636 32.9455 26.5081L31.3771 23.7634Z" fill="white"/>
</svg>
