<svg width="103" height="102" viewBox="0 0 103 102" fill="none" xmlns="http://www.w3.org/2000/svg">
<circle cx="53" cy="50" r="50" fill="#F6F6F6"/>
<path d="M42.7642 34.1948C40.673 29.7274 41.6117 25.5213 45.5801 21.5767C48.2891 19.3667 52.2337 18.1073 57.4141 17.7983C66.4915 17.3231 70.7332 19.0103 70.1392 22.8599C69.4025 25.5451 67.6916 25.557 65.0063 22.8955C58.5666 22.1351 53.8615 22.5747 50.8911 24.2144C45.3068 26.8758 45.0454 31.4977 50.1069 38.0801C52.6971 41.4782 52.0317 44.4248 48.1108 46.9199C38.8908 52.7894 36.2293 59.1816 40.1265 66.0967C43.6196 72.2988 49.3346 74.2949 57.2715 72.085C62.3568 70.6592 64.9707 70.9443 65.1133 72.9404C65.3034 75.9821 63.9251 77.7881 60.9785 78.3584C55.6794 79.3564 50.5584 79.0238 45.6157 77.3604C39.0571 75.1742 35.0768 71.3364 33.6748 65.8472C31.4173 56.9598 35.0768 49.6883 44.6533 44.0327C47.1484 42.5594 47.0415 40.195 44.3325 36.9395L42.7642 34.1948Z" fill="#916453"/>
</svg>
