<svg width="88" height="71" viewBox="0 0 88 71" fill="none" xmlns="http://www.w3.org/2000/svg">
<path d="M87.1667 8.33333C83.9583 9.79167 80.5 10.75 76.9167 11.2083C80.5833 9 83.4167 5.5 84.75 1.29167C81.2917 3.375 77.4583 4.83333 73.4167 5.66667C70.125 2.08333 65.5 0 60.25 0C50.4583 0 42.4583 8 42.4583 17.875C42.4583 19.2917 42.625 20.6667 42.9167 21.9583C28.0833 21.2083 14.875 14.0833 6.08333 3.29167C4.54167 5.91667 3.66667 9 3.66667 12.25C3.66667 18.4583 6.79167 23.9583 11.625 27.0833C8.66667 27.0833 5.91667 26.25 3.5 25C3.5 25 3.5 25 3.5 25.125C3.5 33.7917 9.66667 41.0417 17.8333 42.6667C16.3333 43.0833 14.75 43.2917 13.125 43.2917C12 43.2917 10.875 43.1667 9.79167 42.9583C12.0417 50 18.5833 55.25 26.4583 55.375C20.375 60.2083 12.6667 63.0417 4.25 63.0417C2.83333 63.0417 1.41667 62.9583 0 62.7917C7.91667 67.875 17.3333 70.8333 27.4167 70.8333C60.25 70.8333 78.2917 43.5833 78.2917 19.9583C78.2917 19.1667 78.2917 18.4167 78.25 17.625C81.75 15.125 84.75 11.9583 87.1667 8.33333Z" fill="#333333"/>
</svg>
