<svg width="84" height="84" viewBox="0 0 84 84" fill="none" xmlns="http://www.w3.org/2000/svg">
<path d="M42 0.5C19.0834 0.5 0.333374 19.2083 0.333374 42.25C0.333374 63.0833 15.5834 80.375 35.5 83.5V54.3333H24.9167V42.25H35.5V33.0417C35.5 22.5833 41.7084 16.8333 51.25 16.8333C55.7917 16.8333 60.5417 17.625 60.5417 17.625V27.9167H55.2917C50.125 27.9167 48.5 31.125 48.5 34.4167V42.25H60.0834L58.2084 54.3333H48.5V83.5C58.3186 81.9493 67.2592 76.9397 73.7081 69.3753C80.1569 61.8109 83.689 52.1902 83.6667 42.25C83.6667 19.2083 64.9167 0.5 42 0.5Z" fill="#333333"/>
</svg>
