<svg width="64" height="65" viewBox="0 0 64 65" fill="none" xmlns="http://www.w3.org/2000/svg">
<path d="M42.8267 35.1293L57.84 50.036L48.9867 58.7826L34.08 43.876V41.4226L40.3734 35.1293H42.8267ZM45.2534 28.3826L42.6667 25.8226L29.8934 38.6226V43.876L14.88 58.8893L6.13336 50.036L21.04 35.1293H26.2934L28.3734 33.0493L18.1334 22.7826H14.6667L7.17336 15.2093L14.16 8.22264L21.6267 15.6893V19.1826L32 29.4226L39.0934 22.3293L36.5334 19.636L40 16.1426H32.9067L31.1734 14.4093L40 5.55597L41.76 7.31597V14.4093L45.2534 10.8893L54 19.636C56.9067 22.5693 56.9067 27.3426 54 30.2493L48.7467 24.8893L45.2534 28.3826Z" fill="#4F4F4F"/>
</svg>
