<svg width="64" height="65" viewBox="0 0 64 65" fill="none" xmlns="http://www.w3.org/2000/svg">
<path d="M24 13.6832V16.3499H40V13.6832H24ZM58.6666 48.3498C58.6666 49.7632 58.1066 51.0165 57.0666 52.1098C56 53.1765 54.8 53.6832 53.3333 53.6832H10.6666C9.19998 53.6832 7.99998 53.1765 6.93331 52.1098C5.89331 51.0165 5.33331 49.7632 5.33331 48.3498V37.6832H18.6666V40.3498H24V37.6832H40V40.3498H45.3333V37.6832H58.6666V48.3498ZM12 19.6032C12.9066 17.4432 14.5333 16.3499 16.88 16.3499H18.6666V13.6832C18.6666 12.2165 19.1466 11.0165 20.1866 9.92319C21.2266 8.88319 22.5066 8.34985 24 8.34985H40C41.4933 8.34985 42.7733 8.88319 43.8133 9.92319C44.8533 11.0165 45.3333 12.2165 45.3333 13.6832V16.3499H47.12C49.4666 16.3499 51.0933 17.4432 52 19.6032L57.5466 32.3498H45.3333V29.6832H40V32.3498H24V29.6832H18.6666V32.3498H6.45331L12 19.6032Z" fill="#4F4F4F"/>
</svg>
